<?xml version="1.0" encoding="UTF-8"?> <svg xmlns="http://www.w3.org/2000/svg" width="525" height="89" viewBox="0 0 525 89" fill="none"><path d="M103.43 52.241V0.880464H115.609L129.11 22.5986L142.61 0.880464H154.79V52.241H143.564V18.7099L129.11 40.6482H128.816L114.509 18.93V52.241H103.43Z" fill="#42C7FF"></path><path d="M167.642 52.241V0.880464H178.942V52.241H167.642Z" fill="#42C7FF"></path><path d="M203.737 52.241V11.2993H188.109V0.880464H230.665V11.2993H215.036V52.241H203.737Z" fill="#42C7FF"></path><path d="M239.868 52.241V0.880464H251.168V52.241H239.868Z" fill="#42C7FF"></path><path d="M288.73 53.1215C280.756 53.1215 274.251 50.6268 269.213 45.6375C264.223 40.6482 261.729 34.2893 261.729 26.5607C261.729 19.1746 264.297 12.9135 269.433 7.77746C274.569 2.59249 280.977 0 288.656 0C293.107 0 296.874 0.586978 299.955 1.76093C303.037 2.88597 305.996 4.64691 308.834 7.04373L301.716 15.6283C299.564 13.8184 297.485 12.4977 295.48 11.6662C293.474 10.8346 291.077 10.4189 288.289 10.4189C284.18 10.4189 280.683 12.0086 277.797 15.1881C274.96 18.3186 273.541 22.1095 273.541 26.5607C273.541 31.2566 274.984 35.1453 277.87 38.2269C280.805 41.3086 284.547 42.8494 289.096 42.8494C293.303 42.8494 296.849 41.8222 299.735 39.7677V32.4305H288.363V22.672H310.668V44.9772C304.26 50.4067 296.947 53.1215 288.73 53.1215Z" fill="#42C7FF"></path><path d="M317.138 52.241L339.149 0.513603H349.568L371.58 52.241H359.767L355.071 40.7216H333.353L328.657 52.241H317.138ZM337.389 30.743H351.036L344.212 14.0875L337.389 30.743Z" fill="#42C7FF"></path><path d="M384.875 52.241V11.2993H369.246V0.880464H411.802V11.2993H396.174V52.241H384.875Z" fill="#42C7FF"></path><path d="M462.735 45.4174C457.55 50.5535 451.044 53.1215 443.218 53.1215C435.391 53.1215 428.886 50.5535 423.701 45.4174C418.565 40.2813 415.997 33.9958 415.997 26.5607C415.997 19.1746 418.589 12.9135 423.774 7.77746C429.008 2.59249 435.538 0 443.364 0C451.191 0 457.672 2.56803 462.808 7.70408C467.993 12.8401 470.585 19.1257 470.585 26.5607C470.585 33.9469 467.969 40.2324 462.735 45.4174ZM432.212 38.0068C435.147 41.1374 438.864 42.7026 443.364 42.7026C447.865 42.7026 451.558 41.1618 454.444 38.0802C457.33 34.9496 458.773 31.1098 458.773 26.5607C458.773 22.0606 457.305 18.2452 454.37 15.1147C451.435 11.9841 447.718 10.4189 443.218 10.4189C438.717 10.4189 435.024 11.9841 432.138 15.1147C429.252 18.1963 427.809 22.0117 427.809 26.5607C427.809 31.0609 429.277 34.8763 432.212 38.0068Z" fill="#42C7FF"></path><path d="M480.609 52.241V0.880464H504.088C510.594 0.880464 515.583 2.61694 519.056 6.08989C521.991 9.02478 523.458 12.9869 523.458 17.9762C523.458 25.8515 519.79 31.1587 512.452 33.898L524.999 52.241H511.792L500.639 35.8056H491.908V52.241H480.609ZM491.908 25.827H503.354C506.093 25.827 508.221 25.1667 509.738 23.846C511.254 22.4764 512.012 20.6665 512.012 18.4164C512.012 16.0196 511.229 14.2098 509.664 12.9869C508.099 11.7151 505.922 11.0792 503.134 11.0792H491.908V25.827Z" fill="#42C7FF"></path><path d="M25.2563 13.2224C25.2563 20.1967 19.6025 25.8505 12.6282 25.8505C5.65382 25.8505 0 20.1967 0 13.2224C0 6.24805 5.65382 0.594238 12.6282 0.594238C19.6025 0.594238 25.2563 6.24805 25.2563 13.2224Z" fill="#42C7FF"></path><path d="M52.4008 28.927C52.4008 35.9013 46.747 41.5551 39.7727 41.5551C32.7983 41.5551 27.1445 35.9013 27.1445 28.927C27.1445 21.9526 32.7983 16.2988 39.7727 16.2988C46.747 16.2988 52.4008 21.9526 52.4008 28.927Z" fill="#42C7FF"></path><path d="M79.7075 44.4783C79.7075 51.4526 74.0537 57.1064 67.0793 57.1064C60.105 57.1064 54.4512 51.4526 54.4512 44.4783C54.4512 37.5039 60.105 31.8501 67.0793 31.8501C74.0537 31.8501 79.7075 37.5039 79.7075 44.4783Z" fill="white"></path><path d="M52.4008 60.4358C52.4008 67.4101 46.747 73.0639 39.7727 73.0639C32.7983 73.0639 27.1445 67.4101 27.1445 60.4358C27.1445 53.4614 32.7983 47.8076 39.7727 47.8076C46.747 47.8076 52.4008 53.4614 52.4008 60.4358Z" fill="white"></path><path d="M25.2563 44.4783C25.2563 51.4526 19.6025 57.1064 12.6282 57.1064C5.65382 57.1064 0 51.4526 0 44.4783C0 37.5039 5.65382 31.8501 12.6282 31.8501C19.6025 31.8501 25.2563 37.5039 25.2563 44.4783Z" fill="white"></path><path d="M25.2563 75.7292C25.2563 82.7036 19.6025 88.3574 12.6282 88.3574C5.65382 88.3574 0 82.7036 0 75.7292C0 68.7549 5.65382 63.1011 12.6282 63.1011C19.6025 63.1011 25.2563 68.7549 25.2563 75.7292Z" fill="#42C7FF"></path><path d="M208.39 88.5436C205.329 88.5436 202.87 87.5599 200.574 85.483L201.913 83.898C203.908 85.729 205.821 86.6034 208.472 86.6034C211.068 86.6034 212.735 85.2371 212.735 83.3515V83.2969C212.735 81.5206 211.778 80.5368 207.761 79.6624C203.362 78.7059 201.339 77.2849 201.339 74.1423V74.0876C201.339 71.109 203.99 68.8682 207.625 68.8682C210.439 68.8682 212.38 69.6606 214.347 71.2183L213.09 72.8852C211.314 71.4369 209.537 70.8084 207.57 70.8084C205.056 70.8084 203.498 72.1474 203.498 73.8963V73.951C203.498 75.7546 204.455 76.793 208.69 77.6675C212.953 78.6239 214.921 80.1542 214.921 83.0782V83.1329C214.921 86.4121 212.188 88.5436 208.39 88.5436Z" fill="white"></path><path d="M176.836 88.5983C171.015 88.5983 167.107 84.0347 167.107 78.7605V78.7059C167.107 73.4317 171.07 68.8135 176.891 68.8135C182.711 68.8135 186.619 73.3771 186.619 78.6512V78.7059C186.619 83.98 182.657 88.5983 176.836 88.5983ZM176.891 86.6034C181.263 86.6034 184.378 83.1055 184.378 78.7605V78.7059C184.378 74.3609 181.208 70.8084 176.836 70.8084C172.464 70.8084 169.348 74.3062 169.348 78.6512V78.7059C169.348 83.0509 172.518 86.6034 176.891 86.6034Z" fill="white"></path><path d="M135.783 88.2705V69.1416H142.424C148.436 69.1416 152.589 73.268 152.589 78.6514V78.7061C152.589 84.0895 148.436 88.2705 142.424 88.2705H135.783ZM142.424 71.1365H137.942V86.2757H142.424C147.261 86.2757 150.349 83.0238 150.349 78.7607V78.7061C150.349 74.4704 147.261 71.1365 142.424 71.1365Z" fill="white"></path><path d="M103.613 88.2705V69.1416H110.254C116.266 69.1416 120.419 73.268 120.419 78.6514V78.7061C120.419 84.0895 116.266 88.2705 110.254 88.2705H103.613ZM110.254 71.1365H105.772V86.2757H110.254C115.091 86.2757 118.179 83.0238 118.179 78.7607V78.7061C118.179 74.4704 115.091 71.1365 110.254 71.1365Z" fill="white"></path><path fill-rule="evenodd" clip-rule="evenodd" d="M200.207 85.5078L201.892 83.5138L202.096 83.7016C204.05 85.495 205.901 86.3368 208.475 86.3368C209.728 86.3368 210.732 86.0069 211.416 85.4742C212.095 84.9451 212.471 84.2084 212.471 83.3515V83.2969C212.471 82.876 212.414 82.52 212.28 82.2076C212.147 81.8977 211.932 81.6158 211.593 81.3518C210.903 80.8141 209.712 80.3592 207.707 79.9229C205.498 79.4426 203.84 78.8377 202.734 77.9281C201.608 77.0029 201.076 75.7817 201.076 74.1423V74.0876C201.076 70.9187 203.893 68.6016 207.627 68.6016C210.507 68.6016 212.505 69.4175 214.515 71.0093L214.719 71.1709L213.139 73.2669L212.924 73.0919C211.192 71.6792 209.474 71.075 207.573 71.075C206.361 71.075 205.405 71.3977 204.759 71.9061C204.116 72.4115 203.768 73.1078 203.768 73.8963V73.951C203.768 74.3791 203.824 74.7436 203.962 75.0648C204.098 75.3834 204.32 75.6744 204.672 75.9468C205.389 76.5011 206.634 76.9701 208.747 77.4064L208.752 77.4073C210.896 77.8886 212.505 78.5219 213.579 79.4316C214.669 80.3546 215.19 81.5454 215.19 83.0782V83.1329C215.19 84.8534 214.471 86.2817 213.251 87.2747C212.036 88.264 210.34 88.8103 208.393 88.8103C205.263 88.8103 202.741 87.8001 200.398 85.6807L200.207 85.5078ZM212.884 72.719C211.177 71.3887 209.463 70.8084 207.573 70.8084C205.059 70.8084 203.501 72.1474 203.501 73.8963V73.951C203.501 75.7546 204.457 76.793 208.693 77.6675C212.956 78.6239 214.924 80.1542 214.924 83.0782V83.1329C214.924 86.4121 212.191 88.5437 208.393 88.5437C205.332 88.5437 202.872 87.5599 200.577 85.483L201.916 83.8981C201.916 83.898 201.916 83.8981 201.916 83.8981C201.982 83.9587 202.048 84.0183 202.114 84.0768C204.038 85.7859 205.912 86.6034 208.475 86.6034C211.071 86.6034 212.738 85.2371 212.738 83.3515V83.2969C212.738 81.5206 211.781 80.5368 207.764 79.6624C203.364 78.7059 201.342 77.2849 201.342 74.1423V74.0876C201.342 71.109 203.993 68.8682 207.627 68.8682C210.442 68.8682 212.382 69.6607 214.35 71.2183L213.093 72.8852C213.023 72.8286 212.954 72.7732 212.884 72.719Z" fill="white"></path><path fill-rule="evenodd" clip-rule="evenodd" d="M176.839 88.8649C170.857 88.8649 166.844 84.168 166.844 78.7605V78.7059C166.844 73.2983 170.912 68.5469 176.893 68.5469C182.875 68.5469 186.888 73.2438 186.888 78.6512V78.7059C186.888 84.1135 182.82 88.8649 176.839 88.8649ZM176.893 86.3368C181.102 86.3368 184.114 82.9755 184.114 78.7605V78.7059C184.114 74.4911 181.047 71.075 176.839 71.075C172.63 71.075 169.618 74.4363 169.618 78.6512V78.7059C169.618 82.9206 172.685 86.3368 176.893 86.3368ZM167.11 78.7605C167.11 84.0347 171.018 88.5983 176.839 88.5983C182.659 88.5983 186.622 83.98 186.622 78.7059V78.6512C186.622 73.3771 182.714 68.8135 176.893 68.8135C171.073 68.8135 167.11 73.4318 167.11 78.7059V78.7605ZM184.381 78.7605C184.381 83.1055 181.266 86.6034 176.893 86.6034C172.521 86.6034 169.351 83.0509 169.351 78.7059V78.6512C169.351 74.3062 172.466 70.8084 176.839 70.8084C181.211 70.8084 184.381 74.3609 184.381 78.7059V78.7605Z" fill="white"></path><path fill-rule="evenodd" clip-rule="evenodd" d="M142.427 69.1416H135.786V88.2706H142.427C148.439 88.2706 152.592 84.0895 152.592 78.7061V78.6514C152.592 73.268 148.439 69.1416 142.427 69.1416ZM142.427 71.1365C147.264 71.1365 150.351 74.4704 150.351 78.7061V78.7607C150.351 83.0238 147.264 86.2757 142.427 86.2757H137.945V71.1365H142.427ZM138.212 71.4031V86.0091H142.427C144.784 86.0091 146.695 85.2178 148.016 83.9262C149.338 82.6344 150.085 80.8262 150.085 78.7607V78.7061C150.085 76.6543 149.338 74.8318 148.015 73.5224C146.693 72.2136 144.782 71.4031 142.427 71.4031H138.212ZM135.52 88.5372V68.875H142.427C148.573 68.875 152.859 73.1086 152.859 78.6514V78.7061C152.859 84.2469 148.575 88.5372 142.427 88.5372H135.52Z" fill="white"></path><path fill-rule="evenodd" clip-rule="evenodd" d="M103.616 88.2706H110.257C116.269 88.2706 120.422 84.0895 120.422 78.7061V78.6514C120.422 73.268 116.269 69.1416 110.257 69.1416H103.616V88.2706ZM110.257 71.1365C115.094 71.1365 118.182 74.4704 118.182 78.7061V78.7607C118.182 83.0238 115.094 86.2757 110.257 86.2757H105.775V71.1365H110.257ZM106.042 71.4031V86.0091H110.257C112.614 86.0091 114.525 85.2178 115.847 83.9262C117.168 82.6344 117.915 80.8262 117.915 78.7607V78.7061C117.915 76.6543 117.168 74.8318 115.845 73.5224C114.523 72.2136 112.612 71.4031 110.257 71.4031H106.042ZM103.35 88.5372V68.875H110.257C116.403 68.875 120.689 73.1086 120.689 78.6514V78.7061C120.689 84.2469 116.406 88.5372 110.257 88.5372H103.35Z" fill="white"></path><path d="M508.125 88.2627V69.1338H510.147L522.198 84.4643V69.1338H524.303V88.2627H522.581L510.229 72.577V88.2627H508.125Z" fill="white"></path><path d="M482.312 88.5905C476.492 88.5905 472.584 84.0268 472.584 78.7527V78.6981C472.584 73.4239 476.546 68.8057 482.367 68.8057C488.188 68.8057 492.096 73.3693 492.096 78.6434V78.6981C492.096 83.9722 488.133 88.5905 482.312 88.5905ZM482.367 86.5956C486.739 86.5956 489.855 83.0977 489.855 78.7527V78.6981C489.855 74.3531 486.685 70.8005 482.312 70.8005C477.94 70.8005 474.825 74.2984 474.825 78.6434V78.6981C474.825 83.0431 477.995 86.5956 482.367 86.5956Z" fill="white"></path><path d="M454.191 88.2627V69.1338H456.35V88.2627H454.191Z" fill="white"></path><path d="M429.992 88.2627V71.1287H423.543V69.1338H438.6V71.1287H432.151V88.2627H429.992Z" fill="white"></path><path d="M402.002 88.5905C396.482 88.5905 392.41 84.2455 392.41 78.7527V78.6981C392.41 73.2873 396.482 68.8057 402.084 68.8057C405.554 68.8057 407.659 70.0081 409.544 71.839L408.069 73.4239C406.429 71.8936 404.68 70.8005 402.057 70.8005C397.821 70.8005 394.651 74.2437 394.651 78.6434V78.6981C394.651 83.125 397.821 86.5956 402.057 86.5956C404.68 86.5956 406.402 85.5845 408.233 83.8356L409.654 85.2292C407.686 87.2514 405.445 88.5905 402.002 88.5905Z" fill="white"></path><path d="M363.473 88.2627V69.1338H377.3V71.1013H365.631V77.6325H376.07V79.6001H365.631V86.2952H377.437V88.2627H363.473Z" fill="white"></path><path d="M339.463 88.2627V71.1287H333.014V69.1338H348.071V71.1287H341.622V88.2627H339.463Z" fill="white"></path><path d="M309.902 88.5905C304.082 88.5905 300.174 84.0268 300.174 78.7527V78.6981C300.174 73.4239 304.136 68.8057 309.957 68.8057C315.778 68.8057 319.685 73.3693 319.685 78.6434V78.6981C319.685 83.9722 315.723 88.5905 309.902 88.5905ZM309.957 86.5956C314.329 86.5956 317.445 83.0977 317.445 78.7527V78.6981C317.445 74.3531 314.275 70.8005 309.902 70.8005C305.53 70.8005 302.415 74.2984 302.415 78.6434V78.6981C302.415 83.0431 305.585 86.5956 309.957 86.5956Z" fill="white"></path><path d="M269.799 88.2627V69.1338H278.024C280.402 69.1338 282.26 69.8443 283.462 71.0467C284.419 72.0031 284.938 73.2875 284.938 74.8178V74.8725C284.938 78.0424 282.752 79.928 279.746 80.4472L285.621 88.2627H282.97L277.423 80.8298H271.958V88.2627H269.799ZM271.958 78.8896H277.833C280.675 78.8896 282.752 77.4139 282.752 74.9545V74.8998C282.752 72.5223 280.948 71.1287 277.86 71.1287H271.958V78.8896Z" fill="white"></path><path d="M240.066 88.2627V69.1338H247.226C251.544 69.1338 254.386 71.4293 254.386 75.2004V75.2551C254.386 79.3814 250.943 81.5129 246.871 81.5129H242.225V88.2627H240.066ZM242.225 79.5454H246.953C250.123 79.5454 252.2 77.8511 252.2 75.337V75.2824C252.2 72.5497 250.15 71.1287 247.062 71.1287H242.225V79.5454Z" fill="white"></path><path fill-rule="evenodd" clip-rule="evenodd" d="M510.144 69.1338H508.122V88.2627H510.226V72.577L522.578 88.2627H524.3V69.1338H522.196V84.4643L510.144 69.1338ZM521.929 83.6937L510.274 68.8672H507.855V88.5293H510.493V73.3465L522.449 88.5293H524.566V68.8672H521.929V83.6937Z" fill="white"></path><path fill-rule="evenodd" clip-rule="evenodd" d="M482.309 88.8571C476.328 88.8571 472.314 84.1602 472.314 78.7527V78.6981C472.314 73.2905 476.383 68.5391 482.364 68.5391C488.346 68.5391 492.359 73.2359 492.359 78.6434V78.6981C492.359 84.1056 488.291 88.8571 482.309 88.8571ZM482.364 86.329C486.573 86.329 489.585 82.9677 489.585 78.7527V78.6981C489.585 74.4833 486.518 71.0671 482.309 71.0671C478.101 71.0671 475.088 74.4285 475.088 78.6434V78.6981C475.088 82.9128 478.156 86.329 482.364 86.329ZM472.581 78.7527C472.581 84.0268 476.489 88.5905 482.309 88.5905C488.13 88.5905 492.093 83.9722 492.093 78.6981V78.6434C492.093 73.3693 488.185 68.8057 482.364 68.8057C476.543 68.8057 472.581 73.4239 472.581 78.6981V78.7527ZM489.852 78.7527C489.852 83.0977 486.736 86.5956 482.364 86.5956C477.992 86.5956 474.822 83.0431 474.822 78.6981V78.6434C474.822 74.2984 477.937 70.8005 482.309 70.8005C486.682 70.8005 489.852 74.3531 489.852 78.6981V78.7527Z" fill="white"></path><path fill-rule="evenodd" clip-rule="evenodd" d="M454.188 69.1338V88.2627H456.347V69.1338H454.188ZM453.922 88.5293V68.8672H456.614V88.5293H453.922Z" fill="white"></path><path fill-rule="evenodd" clip-rule="evenodd" d="M429.989 88.2627H432.148V71.1287H438.597V69.1338H423.54V71.1287H429.989V88.2627ZM429.723 71.3953V88.5293H432.415V71.3953H438.864V68.8672H423.273V71.3953H429.723Z" fill="white"></path><path fill-rule="evenodd" clip-rule="evenodd" d="M409.914 71.8296L408.079 73.801L407.884 73.6188C406.272 72.1144 404.585 71.0671 402.054 71.0671C397.981 71.0671 394.915 74.3744 394.915 78.6434V78.6981C394.915 82.9963 397.983 86.329 402.054 86.329C404.586 86.329 406.245 85.3627 408.045 83.6428L408.232 83.4645L410.027 85.2248L409.842 85.4152C407.836 87.4761 405.53 88.8571 401.999 88.8571C396.322 88.8571 392.141 84.3832 392.141 78.7527V78.6981C392.141 73.1514 396.321 68.5391 402.081 68.5391C405.633 68.5391 407.801 69.7772 409.727 71.6477L409.914 71.8296ZM409.463 85.4189C407.54 87.3347 405.333 88.5905 401.999 88.5905C396.479 88.5905 392.407 84.2455 392.407 78.7527V78.6981C392.407 73.2873 396.479 68.8057 402.081 68.8057C405.552 68.8057 407.656 70.0081 409.541 71.839L408.066 73.4239C408.055 73.4141 408.045 73.4043 408.034 73.3946C406.404 71.8797 404.66 70.8005 402.054 70.8005C397.818 70.8005 394.648 74.2438 394.648 78.6434V78.6981C394.648 83.125 397.818 86.5956 402.054 86.5956C404.677 86.5956 406.399 85.5845 408.23 83.8356L409.651 85.2292C409.618 85.2631 409.585 85.2967 409.552 85.3302C409.522 85.3599 409.493 85.3895 409.463 85.4189Z" fill="white"></path><path fill-rule="evenodd" clip-rule="evenodd" d="M363.472 69.1338V88.2627H377.436V86.2952H365.631V79.6001H376.069V77.6325H365.631V71.1013H377.299V69.1338H363.472ZM365.897 71.3679H377.566V68.8672H363.205V88.5293H377.702V86.0286H365.897V79.8667H376.336V77.3659H365.897V71.3679Z" fill="white"></path><path fill-rule="evenodd" clip-rule="evenodd" d="M339.46 88.2627H341.619V71.1287H348.068V69.1338H333.011V71.1287H339.46V88.2627ZM339.193 71.3953V88.5293H341.885V71.3953H348.335V68.8672H332.744V71.3953H339.193Z" fill="white"></path><path fill-rule="evenodd" clip-rule="evenodd" d="M309.899 88.8571C303.918 88.8571 299.904 84.1602 299.904 78.7527V78.6981C299.904 73.2905 303.973 68.5391 309.954 68.5391C315.935 68.5391 319.949 73.2359 319.949 78.6434V78.6981C319.949 84.1056 315.881 88.8571 309.899 88.8571ZM309.954 86.329C314.162 86.329 317.175 82.9677 317.175 78.7527V78.6981C317.175 74.4833 314.108 71.0671 309.899 71.0671C305.691 71.0671 302.678 74.4285 302.678 78.6434V78.6981C302.678 82.9128 305.745 86.329 309.954 86.329ZM300.171 78.7527C300.171 84.0268 304.079 88.5905 309.899 88.5905C315.72 88.5905 319.682 83.9722 319.682 78.6981V78.6434C319.682 73.3693 315.775 68.8057 309.954 68.8057C304.133 68.8057 300.171 73.4239 300.171 78.6981V78.7527ZM317.442 78.7527C317.442 83.0977 314.326 86.5956 309.954 86.5956C305.582 86.5956 302.412 83.0431 302.412 78.6981V78.6434C302.412 74.2984 305.527 70.8005 309.899 70.8005C314.272 70.8005 317.442 74.3531 317.442 78.6981V78.7527Z" fill="white"></path><path fill-rule="evenodd" clip-rule="evenodd" d="M269.796 88.2627H271.955V80.8298H277.42L282.968 88.2627H285.618L279.743 80.4472C279.841 80.4302 279.939 80.4118 280.035 80.3919C282.889 79.8034 284.935 77.9388 284.935 74.8725V74.8178C284.935 73.2875 284.416 72.0031 283.459 71.0467C282.257 69.8443 280.399 69.1338 278.021 69.1338H269.796V88.2627ZM280.212 80.6269C281.579 80.3254 282.775 79.7317 283.656 78.8413C284.63 77.8562 285.202 76.5238 285.202 74.8725V74.8178C285.202 73.2234 284.659 71.8691 283.648 70.8582C282.383 69.5936 280.45 68.8672 278.021 68.8672H269.529V88.5293H272.221V81.0964H277.286L282.834 88.5293H286.152L280.212 80.6269ZM277.83 78.8896H271.955V71.1287H277.857C280.945 71.1287 282.749 72.5224 282.749 74.8998V74.9545C282.749 77.4139 280.672 78.8896 277.83 78.8896ZM272.221 71.3953H277.857C279.366 71.3953 280.524 71.7362 281.298 72.3338C282.064 72.9243 282.482 73.7858 282.482 74.8998V74.9545C282.482 76.1007 282.002 77.007 281.192 77.6334C280.376 78.265 279.208 78.623 277.83 78.623H272.221V71.3953Z" fill="white"></path><path fill-rule="evenodd" clip-rule="evenodd" d="M240.063 88.2627H242.222V81.513H246.868C250.94 81.513 254.383 79.3814 254.383 75.2551V75.2004C254.383 71.4293 251.541 69.1338 247.223 69.1338H240.063V88.2627ZM242.489 81.7796H246.868C248.947 81.7796 250.887 81.2359 252.314 80.1431C253.75 79.0443 254.649 77.4017 254.649 75.2551V75.2004C254.649 73.2423 253.909 71.6483 252.593 70.5484C251.283 69.453 249.427 68.8672 247.223 68.8672H239.797V88.5293H242.489V81.7796ZM246.95 79.5454H242.222V71.1287H247.059C250.147 71.1287 252.197 72.5497 252.197 75.2824V75.337C252.197 77.8511 250.12 79.5454 246.95 79.5454ZM242.489 71.3953H247.059C248.567 71.3953 249.786 71.7427 250.623 72.3914C251.449 73.0329 251.93 73.9901 251.93 75.2824V75.337C251.93 76.514 251.447 77.4896 250.595 78.1764C249.738 78.8673 248.49 79.2788 246.95 79.2788H242.489V71.3953Z" fill="white"></path></svg> 